<?xml version="1.0" encoding="utf-8"?>
<!-- Generator: Adobe Illustrator 23.0.3, SVG Export Plug-In . SVG Version: 6.00 Build 0)  -->
<svg version="1.1" id="Layer_1" xmlns="http://www.w3.org/2000/svg" xmlns:xlink="http://www.w3.org/1999/xlink" x="0px" y="0px"
	 viewBox="0 0 413.38 254.51" style="enable-background:new 0 0 413.38 254.51;" xml:space="preserve">
<style type="text/css">
	.st0{fill:#D32E2E;stroke:#D32E2E;stroke-miterlimit:10;}
	.st1{fill:#FFFFFF;stroke:#D32E2E;stroke-miterlimit:10;}
	.st2{fill:#DB5858;stroke:#DB5858;stroke-miterlimit:10;}
	.st3{fill:#FFFFFF;stroke:#DB5858;stroke-miterlimit:10;}
</style>
<polygon class="st0" points="190.29,71.41 173.12,115.24 137.72,115.59 137.28,71.92 172.68,71.58 "/>
<path class="st0" d="M194.79,195.83c-32.88-57.64-12.98-130.94,44.46-163.71s130.66-12.6,163.55,45.04"/>
<path class="st1" d="M200.31,192.68c-31.14-54.58-12.29-123.98,42.1-155.01s123.72-11.93,154.86,42.65"/>
<path class="st1" d="M204.65,190.21C174.88,138.03,192.9,71.68,244.9,42.02S363.18,30.62,392.94,82.8"/>
<circle class="st0" cx="298.9" cy="136.29" r="101.8"/>
<circle class="st1" cx="298.9" cy="136.29" r="69.12"/>
<circle class="st2" cx="298.9" cy="136.29" r="34.56"/>
<circle class="st3" cx="286.79" cy="123.53" r="7.83"/>
<circle class="st3" cx="287.04" cy="148.39" r="7.83"/>
<circle class="st3" cx="310.5" cy="123.3" r="7.83"/>
<circle class="st3" cx="310.74" cy="148.15" r="7.83"/>
<path class="st0" d="M132.35,69.08l0.48,48.6l-106.16,1.05c-7.61,0.08-13.84-6.03-13.92-13.64l-0.21-21.04
	c-0.08-7.61,6.03-13.84,13.64-13.92L132.35,69.08z"/>
</svg>
